<svg class="bob" font-family="arial" font-size="14" height="304" width="328" xmlns="http://www.w3.org/2000/svg">
<defs>
<marker id="triangle" markerHeight="8" markerWidth="8" orient="auto" refX="4" refY="2" viewBox="0 0 8 4">
<polygon fill="black" points="0,0 0,4 8,2 0,0"/>
</marker>
<marker id="clear_triangle" markerHeight="10" markerWidth="10" orient="auto" refX="1" refY="7" viewBox="0 0 20 14">
<polygon fill="none" points="2,2 2,12 18,7 2,2" stroke="black" stroke-width="2"/>
</marker>
<marker id="circle" markerHeight="5" markerWidth="5" orient="auto" refX="10" refY="10" viewBox="0 0 20 20">
<circle cx="10" cy="10" fill="black" r="8"/>
</marker>
<marker id="square" markerHeight="5" markerWidth="5" orient="auto" refX="10" refY="10" viewBox="0 0 20 20">
<rect fill="black" height="20" width="20" x="0" y="0"/>
</marker>
<marker id="open_circle" markerHeight="10" markerWidth="10" orient="auto" refX="10" refY="10" viewBox="0 0 20 20">
<circle cx="10" cy="10" fill="white" r="4" stroke="black" stroke-width="2"/>
</marker>
<marker id="big_open_circle" markerHeight="20" markerWidth="20" orient="auto" refX="20" refY="20" viewBox="0 0 40 40">
<circle cx="20" cy="20" fill="white" r="6" stroke="black" stroke-width="2"/>
</marker>
</defs>
<style type="text/css">

    line,path {
      stroke: black;
      stroke-width: 2;
      stroke-opacity: 1;
      fill-opacity: 1;
      stroke-linecap: round;
      stroke-linejoin: miter;
    }
    line.dashed {
        stroke-dasharray: 5;
    }
    circle.solid {
      fill:black;
      stroke: black;
      stroke-width: 2;
      stroke-opacity: 1;
      fill-opacity: 1;
      stroke-linecap: round;
      stroke-linejoin: miter;
    }
    circle.open {
      fill:none;
      stroke: black;
      stroke-width: 2;
      stroke-opacity: 1;
      fill-opacity: 1;
      stroke-linecap: round;
      stroke-linejoin: miter;
    }
    tspan.head{
        fill: none;
        stroke: none;
    }
    
</style>
<rect fill="white" height="304" width="328" x="0" y="0"/>
<g>
<line x1="44" x2="44" y1="60" y2="84"/>
<path d="M 44 84 A 4 4 0 0 0 48 88" fill="none"/>
<path d="M 48 56 A 4 4 0 0 0 44 60" fill="none"/>
</g>
<g>
<line x1="44" x2="44" y1="188" y2="212"/>
<path d="M 44 212 A 4 4 0 0 0 48 216" fill="none"/>
<path d="M 48 184 A 4 4 0 0 0 44 188" fill="none"/>
</g>
<g>
<line x1="48" x2="72" y1="56" y2="56"/>
<path d="M 76 60 A 4 4 0 0 0 72 56" fill="none"/>
</g>
<g>
<line x1="48" x2="60" y1="88" y2="88"/>
<line x1="60" x2="60" y1="88" y2="80"/>
<line x1="60" x2="60" y1="88" y2="184"/>
<line x1="60" x2="72" y1="88" y2="88"/>
<line x1="60" x2="60" y1="184" y2="192"/>
<line x1="60" x2="72" y1="184" y2="184"/>
<path d="M 72 88 A 4 4 0 0 0 76 84" fill="none"/>
<path d="M 76 188 A 4 4 0 0 0 72 184" fill="none"/>
</g>
<g>
<line x1="48" x2="60" y1="184" y2="184"/>
</g>
<g>
<line x1="48" x2="72" y1="216" y2="216"/>
<path d="M 72 216 A 4 4 0 0 0 76 212" fill="none"/>
</g>
<g>
<line marker-end="url(#triangle)" x1="60" x2="180" y1="120" y2="120"/>
</g>
<g>
<line marker-end="url(#triangle)" x1="72" x2="68" y1="168" y2="168"/>
<line class="dashed" fill="none" x1="72" x2="176" y1="168" y2="168"/>
</g>
<g>
<line x1="76" x2="76" y1="60" y2="84"/>
</g>
<g>
<line x1="76" x2="76" y1="188" y2="212"/>
</g>
<g>
<line x1="176" x2="184" y1="48" y2="32"/>
</g>
<g>
<line x1="176" x2="184" y1="80" y2="64"/>
<line x1="188" x2="184" y1="56" y2="64"/>
<line x1="188" x2="192" y1="56" y2="64"/>
<line x1="192" x2="200" y1="64" y2="80"/>
</g>
<g>
<line x1="176" x2="184" y1="240" y2="224"/>
</g>
<g>
<line x1="176" x2="184" y1="272" y2="256"/>
<line x1="188" x2="184" y1="248" y2="256"/>
<line x1="188" x2="192" y1="248" y2="256"/>
<line x1="192" x2="200" y1="256" y2="272"/>
</g>
<g>
<line x1="180" x2="180" y1="12" y2="20"/>
<path d="M 180 20 A 4 4 0 0 0 184 24" fill="none"/>
<path d="M 184 8 A 4 4 0 0 0 180 12" fill="none"/>
</g>
<g>
<line x1="180" x2="180" y1="204" y2="212"/>
<path d="M 180 212 A 4 4 0 0 0 184 216" fill="none"/>
<path d="M 184 200 A 4 4 0 0 0 180 204" fill="none"/>
</g>
<g>
<line x1="184" x2="192" y1="8" y2="8"/>
<path d="M 196 12 A 4 4 0 0 0 192 8" fill="none"/>
</g>
<g>
<line x1="184" x2="192" y1="24" y2="24"/>
<path d="M 192 24 A 4 4 0 0 0 196 20" fill="none"/>
</g>
<g>
<line x1="184" x2="192" y1="200" y2="200"/>
<path d="M 196 204 A 4 4 0 0 0 192 200" fill="none"/>
</g>
<g>
<line x1="184" x2="192" y1="216" y2="216"/>
<path d="M 192 216 A 4 4 0 0 0 196 212" fill="none"/>
</g>
<g>
<line x1="188" x2="188" y1="32" y2="48"/>
<line x1="188" x2="188" y1="48" y2="56"/>
</g>
<g>
<line x1="188" x2="188" y1="96" y2="176"/>
</g>
<g>
<line x1="188" x2="188" y1="224" y2="240"/>
<line x1="188" x2="188" y1="240" y2="248"/>
</g>
<g>
<line x1="192" x2="200" y1="32" y2="48"/>
</g>
<g>
<line x1="192" x2="200" y1="224" y2="240"/>
</g>
<g>
<line x1="196" x2="196" y1="12" y2="20"/>
</g>
<g>
<line x1="196" x2="196" y1="204" y2="212"/>
</g>
<g>
<text x="1" y="300">
example
</text>
</g>
<g>
<text x="49" y="76">
Bob
</text>
</g>
<g>
<text x="49" y="204">
Bob
</text>
</g>
<g>
<text x="65" y="300">
from:
</text>
</g>
<g>
<text x="81" y="156">
Is
</text>
</g>
<g>
<text x="97" y="108">
hello
</text>
</g>
<g>
<text x="105" y="156">
it
</text>
</g>
<g>
<text x="113" y="300">
github.com/ivanceras/svgbob
</text>
</g>
<g>
<text x="129" y="156">
ok?
</text>
</g>
<g>
<text x="169" y="92">
Alice
</text>
</g>
<g>
<text x="169" y="188">
Alice
</text>
</g>
</svg>